<svg id="_0202_soccer" xmlns="http://www.w3.org/2000/svg" xmlns:xlink="http://www.w3.org/1999/xlink" viewBox="0 0 500 500" data-imageid="soccer-64" imageName="Soccer" class="illustrations_image" style="width: 214px;"><defs><style>.cls-1_soccer-64{opacity:.6;}.cls-1_soccer-64,.cls-2_soccer-64,.cls-3_soccer-64,.cls-4_soccer-64,.cls-5_soccer-64,.cls-6_soccer-64,.cls-7_soccer-64,.cls-8_soccer-64,.cls-9_soccer-64,.cls-10_soccer-64,.cls-11_soccer-64,.cls-12_soccer-64,.cls-13_soccer-64,.cls-14_soccer-64,.cls-15_soccer-64,.cls-16_soccer-64,.cls-17_soccer-64,.cls-18_soccer-64,.cls-19_soccer-64,.cls-20_soccer-64,.cls-21_soccer-64,.cls-22_soccer-64,.cls-23_soccer-64,.cls-24_soccer-64,.cls-25_soccer-64,.cls-26_soccer-64,.cls-27_soccer-64{stroke-width:0px;}.cls-1_soccer-64,.cls-23_soccer-64{isolation:isolate;}.cls-1_soccer-64,.cls-23_soccer-64,.cls-27_soccer-64{fill:#68e1fd;}.cls-2_soccer-64{fill:url(#linear-gradient);}.cls-3_soccer-64{fill:url(#linear-gradient-11-soccer-64);}.cls-4_soccer-64{fill:url(#linear-gradient-12-soccer-64);}.cls-5_soccer-64{fill:url(#linear-gradient-13-soccer-64);}.cls-6_soccer-64{fill:url(#linear-gradient-10-soccer-64);}.cls-7_soccer-64{fill:url(#linear-gradient-17-soccer-64);}.cls-8_soccer-64{fill:url(#linear-gradient-16-soccer-64);}.cls-9_soccer-64{fill:url(#linear-gradient-19-soccer-64);}.cls-10_soccer-64{fill:url(#linear-gradient-15-soccer-64);}.cls-11_soccer-64{fill:url(#linear-gradient-21-soccer-64);}.cls-12_soccer-64{fill:url(#linear-gradient-18-soccer-64);}.cls-13_soccer-64{fill:url(#linear-gradient-14-soccer-64);}.cls-14_soccer-64{fill:url(#linear-gradient-20-soccer-64);}.cls-15_soccer-64{fill:url(#linear-gradient-4-soccer-64);}.cls-16_soccer-64{fill:url(#linear-gradient-2-soccer-64);}.cls-17_soccer-64{fill:url(#linear-gradient-3-soccer-64);}.cls-18_soccer-64{fill:url(#linear-gradient-8-soccer-64);}.cls-19_soccer-64{fill:url(#linear-gradient-9-soccer-64);}.cls-20_soccer-64{fill:url(#linear-gradient-7-soccer-64);}.cls-21_soccer-64{fill:url(#linear-gradient-5-soccer-64);}.cls-22_soccer-64{fill:url(#linear-gradient-6-soccer-64);}.cls-23_soccer-64{opacity:.24;}.cls-24_soccer-64{fill:#231f20;}.cls-25_soccer-64{fill:#fff;}.cls-26_soccer-64{fill:#ffaa71;}</style><linearGradient id="linear-gradient-soccer-64" x1="743.92" y1="2452.65" x2="731.75" y2="2943" gradientTransform="translate(-515.53 2894.38) scale(1 -1)" gradientUnits="userSpaceOnUse"><stop offset="0" stop-color="#231f20" stop-opacity="0"/><stop offset="1" stop-color="#231f20"/></linearGradient><linearGradient id="linear-gradient-2-soccer-64" x1="832.95" y1="2530.4" x2="829.89" y2="2369.27" gradientTransform="translate(-471 2915.26) scale(1 -1)" xlink:href="#linear-gradient-soccer-64"/><linearGradient id="linear-gradient-3-soccer-64" x1="685.24" y1="2553.02" x2="880.31" y2="2744.76" xlink:href="#linear-gradient-soccer-64"/><linearGradient id="linear-gradient-4-soccer-64" x1="668.98" y1="2690.01" x2="775.36" y2="2690.01" gradientTransform="translate(-515.53 2894.38) scale(1 -1)" gradientUnits="userSpaceOnUse"><stop offset="0" stop-color="#fff" stop-opacity="0"/><stop offset=".95" stop-color="#fff"/></linearGradient><linearGradient id="linear-gradient-5-soccer-64" x1="669" y1="2723.99" x2="681.18" y2="2723.99" xlink:href="#linear-gradient-soccer-64"/><linearGradient id="linear-gradient-6-soccer-64" x1="743.44" y1="2726.29" x2="762.33" y2="2766.92" xlink:href="#linear-gradient-soccer-64"/><linearGradient id="linear-gradient-7-soccer-64" x1="742.17" y1="2757.2" x2="778.64" y2="2757.2" xlink:href="#linear-gradient-soccer-64"/><linearGradient id="linear-gradient-8-soccer-64" x1="758.94" y1="2612.09" x2="681.73" y2="2617.9" xlink:href="#linear-gradient-soccer-64"/><linearGradient id="linear-gradient-9-soccer-64" x1="746.08" y1="2626.2" x2="665.15" y2="2585.1" xlink:href="#linear-gradient-soccer-64"/><linearGradient id="linear-gradient-10-soccer-64" x1="762.7" y1="2658.64" x2="361.8" y2="2562.29" xlink:href="#linear-gradient-soccer-64"/><linearGradient id="linear-gradient-11-soccer-64" x1="766.91" y1="2699.98" x2="730.59" y2="2644.79" xlink:href="#linear-gradient-soccer-64"/><linearGradient id="linear-gradient-12-soccer-64" x1="799.75" y1="2518.4" x2="850.51" y2="2552.24" gradientTransform="translate(-471 2915.26) scale(1 -1)" xlink:href="#linear-gradient-4-soccer-64"/><linearGradient id="linear-gradient-13-soccer-64" x1="882.77" y1="2512.98" x2="917.43" y2="2493.48" xlink:href="#linear-gradient-4-soccer-64"/><linearGradient id="linear-gradient-14-soccer-64" x1="869.77" y1="2505.68" x2="854.27" y2="2483.27" xlink:href="#linear-gradient-4-soccer-64"/><linearGradient id="linear-gradient-15-soccer-64" x1="857.44" y1="2511.68" x2="860.56" y2="2543.02" xlink:href="#linear-gradient-4-soccer-64"/><linearGradient id="linear-gradient-16-soccer-64" x1="870.87" y1="2510.35" x2="873.98" y2="2541.69" xlink:href="#linear-gradient-4-soccer-64"/><linearGradient id="linear-gradient-17-soccer-64" x1="879.97" y1="2512.07" x2="882.8" y2="2540.57" xlink:href="#linear-gradient-4-soccer-64"/><linearGradient id="linear-gradient-18-soccer-64" x1="834.5" y1="2523.22" x2="863.97" y2="2590.26" gradientTransform="translate(-471 2915.26) scale(1 -1)" xlink:href="#linear-gradient-soccer-64"/><linearGradient id="linear-gradient-19-soccer-64" x1="857.92" y1="2550.49" x2="953.8" y2="2412.26" xlink:href="#linear-gradient-soccer-64"/><linearGradient id="linear-gradient-20-soccer-64" x1="799.51" y1="2561.74" x2="895.39" y2="2423.52" gradientTransform="translate(-471 2915.26) scale(1 -1)" xlink:href="#linear-gradient-soccer-64"/><linearGradient id="linear-gradient-21-soccer-64" x1="875.91" y1="2505.6" x2="903.58" y2="2463.41" xlink:href="#linear-gradient-soccer-64"/></defs><g id="background_soccer-64"><path class="cls-23_soccer-64 targetColor" d="M465.62,324.04c-.11.29-.2.56-.32.85-14.06,37.24-31.87,76.69-66.75,95.88-28.42,15.62-62.62,14.66-95.01,13.3-52.51-2.24-105.02-4.47-157.53-6.7-24.18-1.03-48.95-2.18-71.3-11.47-30.45-12.62-53.33-40.98-60.99-72.88-2.27-9.18-3.17-18.63-2.69-28.07,1.8-34.71,20.84-66.87,21.76-101.57.67-25.51-8.4-52.1.81-75.9,12.55-32.38,51.87-43.67,85.93-50.69,72.15-14.88,231.51-83.53,277.15,11.81,7.52,15.71,9.85,33.7,18.73,48.72,13.41,22.67,39.63,35.11,54.19,57.08,22.92,34.59,10.68,80.71-3.98,119.63Z" style="fill: rgb(104, 225, 253);"/><path class="cls-1_soccer-64 targetColor" d="M465.62,324.04c-.11.29-.2.56-.32.85-14.06,37.24-31.87,76.69-66.75,95.88-28.42,15.62-62.62,14.66-95.01,13.3-52.51-2.24-105.02-4.47-157.53-6.7-24.18-1.03-48.95-2.18-71.3-11.47-30.45-12.62-53.33-40.98-60.99-72.88,3.06-.59,6.28-1.18,9.64-1.86,7.39-1.49,14.54-4.15,21.92-5.43,3.33-.59,6.72-.7,10.08-.32,3.57.43,7.91,3.25,10.13-.06.3.75.72,1.43,1.25,2.04l1.21-1.39c-.13.58-.07,1.2.16,1.75,1.01-.72,1.84-1.66,2.44-2.74.81,4.38,5.1,6.63,8.93,8,3.25,1.14,10.44,4.2,13.54,2.44.8-.41,1.39-1.14,1.62-2.01l.06,3.25c.83-.57,1.51-1.31,2.01-2.18.28.98.49,1.97.63,2.98l1.58-2.55c.63.99.67,2.33,1.52,3.14.34.3.74.54,1.16.71,5.16,2.4,10.56,3.9,16.01,5.46,40.24,11.47,80.99,21.84,122.74,25.89,52.1,5.03,106.44-.27,153.06-24.09,2.83-1.41,5.77-3.13,7.07-5.98.83-1.94.54-4.17-.74-5.84l6.78,3.71c2.42-2.23,4.86-4.45,7.31-6.66,2.39,3.13,4.74,6.25,7.14,9.4,14.87-8.88,29.75-17.76,44.65-26.63Z" style="fill: rgb(104, 225, 253);"/><path class="cls-2_soccer-64" d="M151.95,369.5c-1.02,3.88,3.43,6.72,6.78,8.93s6.04,7.73,2.5,9.64c-.95.41-1.98.59-3.01.53-22.28.26-44.55-1.28-66.59-4.62,3.3,9.03,14.62,11.65,24.15,12.8,66.59,7.95,133.84,8.63,200.57,2.02,17.58-1.74,37.92-5.87,45.75-21.71-2.06,4.18-19.72,7.95-24.08,9.17-8.29,2.33-16.77,3.9-25.34,4.71-16.8,1.55-33.68,1.95-50.53,1.19-37.7-1.71-74.89-9.35-110.2-22.66Z"/><ellipse class="cls-16_soccer-64" cx="361.7" cy="397.98" rx="27.13" ry="4.16"/></g><g id="character_soccer-64"><path class="cls-26_soccer-64" d="M263.82,224.59c5.29,3.45,11.17,5.85,17.11,7.99,9.03,3.26,18.25,5.99,27.61,8.17.63.15,1.44.21,1.76-.35.71-1.23-2.22-1.8-2.24-3.25,3.58-.6,7.26.1,10.37,1.98.91.56,2.29,1.13,2.86.23.39-.61,0-1.4-.42-1.99-4.27-5.78-11.44-8.65-18.52-7.4-.95.26-1.94.37-2.92.35-1.18-.21-2.29-.69-3.25-1.41-6.74-4.32-13.08-9.48-20.59-12.26-2.44-.91-5.12-1.62-7.02-3.4-1.27-1.35-2.3-2.91-3.05-4.6-2.18-4.18-6.67-9.53-10.19-14.71-.76-1.12-3.51,9.16-3.86,9.91-1.1,2.38-1.9,5.12-.63,7.51,2.83,5.29,8.13,10.02,13,13.22Z"/><path class="cls-24_soccer-64" d="M154.08,317.97c-2.85.29-5.27,2.21-6.2,4.92-1,3.47,1.17,6.96,1.99,10.47,1.79,7.75-3.05,16.08-.57,23.64.85,2.61,3.48,5.21,6.02,4.16,1.51-.63,2.27-2.31,2.87-3.83l4.87-12.18c.99-2.29,1.79-4.66,2.39-7.09,1.74-7.8-.8-21.41-11.38-20.08Z"/><path class="cls-26_soccer-64" d="M240.72,319.49c3.25,4.6,4.83,10.2,7.58,15.14,2.38,3.98,5.19,7.68,8.37,11.05,11.69,13.06,24.45,25.1,38.17,36.01,3.52-.25,6.03-3.93,6.18-7.46s-1.62-3.13-3.3-6.24c-7.09-13.15-17.39-26.8-26.57-38.61-3.52-4.52-5.77-11.01-9.3-15.53-6.5-8.36-12.99-16.72-20.02-24.65-.49-.68-1.19-1.2-1.99-1.47-.88-.1-1.77.1-2.53.55-5.42,2.5-14.78,7.45-11.52,14.66,3,6.68,10.73,10.61,14.93,16.56Z"/><path class="cls-26_soccer-64" d="M202.26,303.18c-14.85,4.23-28.97,10.71-41.86,19.21-.48.25-.87.64-1.14,1.1-.22.69-.17,1.44.13,2.1l1.06,3.3c.47,1.49,1.06,3.13,2.44,3.86,1.62.81,3.55.12,5.25-.52,13.8-5.16,29.13-3.35,43.79-4.87,2.21-.24,4.49-.58,6.36-1.77,2.01-1.29,3.33-3.42,4.37-5.58,2.38-4.95,3.65-10.65,2.27-15.96-.13-.69-.45-1.33-.92-1.85-.47-.39-1.03-.67-1.62-.81-4.02-1.29-8.19-2.03-12.4-2.22-4.69-.26-6.72-.71-7.72,4.02Z"/><path class="cls-17_soccer-64" d="M224.29,315.96c-4.16-1.12-9.05-1.62-11.68-3.16-1.62-.91-3.25-1.97-5.04-2.27-1.55-.12-3.11.05-4.6.5-8.43,2.06-16.85,4.11-25.24,6.13-1.51.35-3.1.76-4.19,1.86-1.24,1.23-1.62,3.12-1.68,4.87-.12,2.34.12,4.69.71,6.96-1.5.39-2.97.85-4.43,1.38-1.71.62-3.65,1.36-5.25.5-1.38-.71-1.97-2.36-2.44-3.87l-1.06-3.25c-.3-.66-.34-1.41-.11-2.1.26-.48.65-.86,1.12-1.12,12.89-8.51,27.01-15,41.86-19.25,1-4.72,3.04-4.27,7.69-4.06,4.23.19,8.41.93,12.45,2.2.6.16,1.15.46,1.62.86.47.52.79,1.16.92,1.85.92,3.96.69,8.11-.66,11.94Z"/><path class="cls-27_soccer-64 targetColor" d="M259.82,197.02c-.12.78-.45,1.51-.94,2.12-1.86,2.89-3.72,5.75-5.57,8.61-1.71,2.69-3.45,5.34-5.16,7.99-1.74-2.24-3.45-4.51-5.19-6.78.05.23.09.45.12.68,1.74,9.91-.68,20.23.91,30.19.81,4.87,2.54,9.58,2.89,14.5.12.69,0,1.39-.32,2.01-.62.92-1.88.97-2.98.92-16.24-.6-32.44-1.18-48.58-1.75-2.07-.08-4.16-.17-6.22-.24-.67.05-1.34-.12-1.92-.47-.59-.53-.98-1.25-1.1-2.03-2.98-11.94-6.02-24.03-6.02-36.33,0-7.81,1.21-15.57,1.15-23.38,0-1.53-.11-3.18-.97-4.48-.31-.48-.7-.91-1.14-1.27-3.19-2.44-9.11-.81-12.51-3.56-1.01-.94-1.83-2.06-2.44-3.3-2.89-5.19-5.78-10.35-8.67-15.51-1.18-2.12-2.35-4.65-1.3-6.84,15.1,1.45,29.81-8.93,44.73-6.16,4.98,0,17.68,2.62,22.66,3.36,5.48.81,2.96,2.57,8.41,4.01,6.8,1.77,14.06,3.83,18.48,9.28,5.68,7.02,4.87,17.49,10.09,24.86.76,1.1,1.71,2.24,1.58,3.57Z" style="fill: rgb(104, 225, 253);"/><path class="cls-15_soccer-64" d="M259.82,197.02c-.12.78-.45,1.51-.94,2.12-1.86,2.89-3.72,5.75-5.57,8.61-1.71,2.69-3.45,5.34-5.16,7.99-1.74-2.24-3.45-4.51-5.19-6.78.05.23.09.45.12.68,1.74,9.91-.68,20.23.91,30.19.81,4.87,2.54,9.58,2.89,14.5.12.69,0,1.39-.32,2.01-.62.92-1.88.97-2.98.92-16.24-.6-32.44-1.18-48.58-1.75-2.07-.08-4.16-.17-6.22-.24-.67.05-1.34-.12-1.92-.47-.59-.53-.98-1.25-1.1-2.03-2.98-11.94-6.02-24.03-6.02-36.33,0-7.81,1.21-15.57,1.15-23.38,0-1.53-.11-3.18-.97-4.48-.31-.48-.7-.91-1.14-1.27-3.19-2.44-9.11-.81-12.51-3.56-1.01-.94-1.83-2.06-2.44-3.3-2.89-5.19-5.78-10.35-8.67-15.51-1.18-2.12-2.35-4.65-1.3-6.84,15.1,1.45,29.81-8.93,44.73-6.16,4.98,0,17.68,2.62,22.66,3.36,5.48.81,2.96,2.57,8.41,4.01,6.8,1.77,14.06,3.83,18.48,9.28,5.68,7.02,4.87,17.49,10.09,24.86.76,1.1,1.71,2.24,1.58,3.57Z"/><path class="cls-27_soccer-64 targetColor" d="M153.66,162.53s-.55-4.06.19-4.43,5.36,7.26,5.36,7.26c0,0,5.68,15.58,6.38,16.99s-4.87-1.56-8.12-6.96c-3.25-5.4-3.81-12.86-3.81-12.86Z" style="fill: rgb(104, 225, 253);"/><path class="cls-21_soccer-64" d="M153.66,162.53s-.55-4.06.19-4.43,5.36,7.26,5.36,7.26c0,0,5.68,15.58,6.38,16.99s-4.87-1.56-8.12-6.96c-3.25-5.4-3.81-12.86-3.81-12.86Z"/><path class="cls-26_soccer-64" d="M220.5,155.35c-.82.67-1.45,1.54-1.82,2.53-.41,1.46.26,2.99.97,4.34,1.22,2.31,5.5,12.4,10.49,7.83,3.87-3.55,5.84-5.38,5.68-6.38-.24-1.38-1.5-10.21-2.07-11.5-.23-.6-.58-1.15-1.02-1.62-4.03-3.91-9.61,2.31-12.23,4.82Z"/><path class="cls-22_soccer-64" d="M229.13,151.06s-2.74,16.83,3.1,17.45l5.76-7.71-8.86-9.74Z"/><path class="cls-26_soccer-64" d="M258.26,150.23c-1.24,2.2-2.73,4.39-2.94,6.91-.1,1.22.06,2.57-.68,3.53-.59.81-1.62,1.06-2.44,1.49-3.1,1.62-4.87,5.47-8.25,6.17-1.97.29-3.97-.3-5.46-1.62-1.46-1.32-2.72-2.85-3.73-4.54-2.44-3.63-4.91-7.41-5.58-11.73-1.03-6.63,2.86-13.63,8.93-16.5,6.28-2.76,13.59-1.58,18.68,3.02,3.91,3.61,3.98,8.83,1.46,13.26Z"/><path class="cls-24_soccer-64" d="M263.09,135.51c-.01,1.22-.29,2.43-.81,3.53-.55,1.11-1.58,1.91-2.79,2.16-2.12.32-4.17-1.56-6.25-1.07-.64.15-1.23.52-1.88.62-1.05.17-2.06-.37-3.06-.76-2.57-.98-5.84-.81-7.67,1.29-.76,1.05-1.4,2.17-1.9,3.36-.1.25-.28.46-.52.59-.66.28-1.2-.67-1.08-1.37s.54-1.4.33-2.08c-.38-.84-1.38-1.21-2.22-.83-.04.02-.08.04-.12.06-.8.5-1.4,1.27-1.7,2.17-.54,1.21-.9,2.72-.08,3.76.17.16.28.37.31.59-.04.17-.12.32-.25.44l-4.77,5.17c-1.07-1.24-1.31-2.98-1.49-4.61-.51-4.51-1-9.22.52-13.5.94-2.44,2.31-4.69,4.06-6.64,1.73-2.15,3.84-3.96,6.24-5.34,3.81-2.04,8.28-2.43,12.38-1.1,3.56,1.18,6.21,3.53,8.79,6.14,2.26,2.35,4.19,3.65,3.95,7.4Z"/><path class="cls-20_soccer-64" d="M263.09,135.51c-.01,1.22-.29,2.43-.81,3.53-.55,1.11-1.58,1.91-2.79,2.16-2.12.32-4.17-1.56-6.25-1.07-.64.15-1.23.52-1.88.62-1.05.17-2.06-.37-3.06-.76-2.57-.98-5.84-.81-7.67,1.29-.76,1.05-1.4,2.17-1.9,3.36-.1.25-.28.46-.52.59-.66.28-1.2-.67-1.08-1.37s.54-1.4.33-2.08c-.38-.84-1.38-1.21-2.22-.83-.04.02-.08.04-.12.06-.8.5-1.4,1.27-1.7,2.17-.54,1.21-.9,2.72-.08,3.76.17.16.28.37.31.59-.04.17-.12.32-.25.44l-4.77,5.17c-1.07-1.24-1.31-2.98-1.49-4.61-.51-4.51-1-9.22.52-13.5.94-2.44,2.31-4.69,4.06-6.64,1.73-2.15,3.84-3.96,6.24-5.34,3.81-2.04,8.28-2.43,12.38-1.1,3.56,1.18,6.21,3.53,8.79,6.14,2.26,2.35,4.19,3.65,3.95,7.4Z"/><path class="cls-27_soccer-64 targetColor" d="M243.57,257.27s-1.39,18.93-4.69,25.55c-3.3,6.62-16.41,23.68-16.41,23.68l-30.35-10.44,8.03-18.42,12.52-23.44,30.91,3.07Z" style="fill: rgb(104, 225, 253);"/><path class="cls-18_soccer-64" d="M243.57,257.27s-1.39,18.93-4.69,25.55c-3.3,6.62-16.41,23.68-16.41,23.68l-30.35-10.44,8.03-18.42,12.52-23.44,30.91,3.07Z"/><path class="cls-27_soccer-64 targetColor" d="M197.02,289.86c6.63,5.91,15.92,8.27,22.38,14.37.84.97,1.89,1.74,3.07,2.25,2.54.81,5-1.3,6.85-3.25l14.34-14.87c.93-.97,1.94-2.14,1.79-3.48-.18-.85-.6-1.63-1.2-2.26l-17.78-22.27c-1.16-1.62-2.57-3.04-4.19-4.2-2.79-1.78-6.29-1.9-9.59-1.97-6.74-.13-13.48-.31-20.22-.39-7.02-.09-6.75,1.92-6.43,8.58.16,5.15,1.12,10.23,2.83,15.09.83,2.31,5.03,12.38,8.14,12.38Z" style="fill: rgb(104, 225, 253);"/><path class="cls-19_soccer-64" d="M197.02,289.86c6.63,5.91,15.92,8.27,22.38,14.37.84.97,1.89,1.74,3.07,2.25,2.54.81,5-1.3,6.85-3.25l14.34-14.87c.93-.97,1.94-2.14,1.79-3.48-.18-.85-.6-1.63-1.2-2.26l-17.78-22.27c-1.16-1.62-2.57-3.04-4.19-4.2-2.79-1.78-6.29-1.9-9.59-1.97-6.74-.13-13.48-.31-20.22-.39-7.02-.09-6.75,1.92-6.43,8.58.16,5.15,1.12,10.23,2.83,15.09.83,2.31,5.03,12.38,8.14,12.38Z"/><path class="cls-25_soccer-64" d="M175.66,316.18c.13-.67.13-1.35,0-2.01-.15-.68-.74-1.17-1.44-1.2-.49.1-.93.36-1.25.74-3.07,2.81-6.7,4.94-10.65,6.25-1.03.26-2.02.7-2.91,1.29-1.05.93-1.75,2.19-1.97,3.57-.62,3.02.04,6.16,1.81,8.68.28.46.69.83,1.19,1.06.43.12.89.15,1.33.08l3.05-.28c1.05-.05,2.09-.23,3.09-.54.92-.37,1.82-.8,2.69-1.3,2.35-1.19,6.95-1.08,7.12-4.48.09-1.84-1.18-3.77-1.62-5.53-.53-2.06-.68-4.21-.45-6.33Z"/><path class="cls-25_soccer-64" d="M288.71,369.3c-.89.36-1.75.81-2.56,1.34-.83.54-1.34,1.45-1.37,2.44.05,1.24,1.11,2.17,2.1,2.93l7.8,6c.61.53,1.3.95,2.05,1.24,2.31.75,4.69-1.07,5.94-3.15.71-1.04,1.03-2.3.89-3.55-.24-.93-.68-1.8-1.3-2.54-1.84-2.55-3.96-6.72-6.5-8.58-1.62-1.18-1.74,0-3.13,1.31-1.17,1.05-2.49,1.92-3.92,2.57Z"/><path class="cls-24_soccer-64" d="M295.72,383.9c-.31.79-.45,1.65-.41,2.5,0,3.25.63,6.63,2.68,9.15s5.77,3.86,8.67,2.44c2.65-1.32,3.87-4.36,5.92-6.5,2.79-2.92,7.31-4.36,8.72-8.12.89-2.78-.18-5.82-2.62-7.42-3-1.93-6.82-.35-10.11-.32-2.44,0-4.12-.19-6.03,1.53-1.34,1.19-2.27,2.72-3.68,3.86-1.1.84-2.56,1.5-3.14,2.88Z"/><path class="cls-26_soccer-64" d="M128.75,162.65c-3.85.62-7.63,1.62-11.27,3-7.63,2.61-15.21,5.36-22.74,8.24-2.44.93-5,1.94-6.89,3.79s-2.94,4.8-1.84,7.2c.54,1.35,1.89,2.2,3.34,2.11.64-.15,1.24-.43,1.77-.81l5.9-3.69c.62,1.83.83,3.77.6,5.68,1.75.6,3.6-.77,4.57-2.35s1.5-3.44,2.74-4.82c2.39-2.63,6.5-2.56,10.03-2.26,8,.68,16.09,1.48,24.02.17,7.01-1.15,14.01-3.94,20.99-2.66.81.15,1.85.27,2.3-.43.22-.47.25-1.01.07-1.49-.69-3.11-1.74-6.13-3.14-8.99-2.44-4.98-9.27-2.22-13.74-2.37-5.58-.18-11.17-1.03-16.73-.33Z"/><path class="cls-6_soccer-64" d="M203.69,254.78l.93,11.78c.55,6.92,4.08,13.27,9.68,17.39l19.89,14.62c-.41.63-2.39,1.97-3.94,3.74-.45.51-4.66,3.95-5.19,3.53-.41-.28-20.69-9.41-32.31-20.2-5.73-5.32-7.75-27.54-5.68-30.97.71-1.19-1.27-1.8-1.3-1.88-2.98-11.94-6.02-24.03-6.02-36.33,0-7.81,1.21-15.57,1.15-23.38,0-1.53-.11-3.18-.97-4.48-.31-.48-.7-.91-1.14-1.27,0,0,7.69-.41,11.41,2.92,3.72,3.34,2.3,12.64,2.3,22.62s7.87,29.07,7.87,29.07l3.33,12.85Z"/><path class="cls-3_soccer-64" d="M248.14,215.74c-1.74-2.24-3.45-4.51-5.19-6.78.05.23.09.45.12.68-.53-1.86-.91-3.76-1.15-5.68-.15-1.88.81-3.42.65-5.3-.09-1.27.68-6.69.12-7.46,3.25,4.07,6.37,8.25,9.37,12.56.62.7.97,1.6.97,2.53.04.51.13,1.01.27,1.5-1.71,2.65-3.45,5.32-5.16,7.95Z"/></g><g id="ball_soccer-64"><path class="cls-27_soccer-64 targetColor" d="M399.78,344.24c-.89-.47-1.77-.97-2.66-1.45,1.05.07,2.03.6,2.66,1.45Z" style="fill: rgb(104, 225, 253);"/><circle class="cls-27_soccer-64 targetColor" cx="358.07" cy="377.32" r="23.22" style="fill: rgb(104, 225, 253);"/><circle class="cls-4_soccer-64" cx="358.07" cy="377.32" r="23.22"/><path class="cls-5_soccer-64" d="M368.78,393.18l2.9-11.31,5.68-5.68,3.25,2.28s.21,10.38-7.98,16.09l-3.85-1.37Z"/><path class="cls-13_soccer-64" d="M351.45,386.43l9.34,9.44-2.72,4.67s-11.81-2.08-15.43-6.75l2.08-8.71,6.73,1.35Z"/><polygon class="cls-27_soccer-64 targetColor" points="365.98 367.86 364.42 376.47 371.69 381.87 378.43 376.68 375.21 367.55 365.98 367.86" style="fill: rgb(104, 225, 253);"/><path class="cls-10_soccer-64" d="M350.48,362.01l-4.01,12.03-4.69,3.18-5.4-3.74s-.39-10.49,10.65-14.94l3.44,3.46Z"/><path class="cls-8_soccer-64" d="M365.94,368.01l-1.5,8.46-12.18,1.62-4.77-5.55,2.97-10.5,8.06-1.14c2.65,2.18,5.14,4.55,7.43,7.11Z"/><path class="cls-7_soccer-64" d="M375.37,362.84l-.97,4.72-7.25.27-9.47-8.02,1.86-4.3c10.74.29,15.83,7.34,15.83,7.34Z"/><path class="cls-27_soccer-64 targetColor" d="M359.54,355.51l-1.03,5.39-7.68,1.97-5.5-1.62-.32-2.39s6.51-6.26,14.53-3.35Z" style="fill: rgb(104, 225, 253);"/><polygon class="cls-27_soccer-64 targetColor" points="340.65 377.09 347.5 372.53 354.46 378.76 352.69 388.3 343.77 387.68 340.65 377.09" style="fill: rgb(104, 225, 253);"/><polygon class="cls-12_soccer-64" points="378.43 376.67 371.69 381.86 364.43 376.47 365.94 368.01 365.96 367.86 367.15 367.83 374.4 367.56 375.23 367.53 378.43 376.67"/><path class="cls-9_soccer-64" d="M359.54,355.51l-1.03,5.39-7.68,1.97-5.5-1.62-.32-2.39s6.51-6.26,14.53-3.35Z"/><polygon class="cls-14_soccer-64" points="340.65 377.09 347.5 372.53 354.46 378.76 352.69 388.3 343.77 387.68 340.65 377.09"/><path class="cls-1_soccer-64 targetColor" d="M358.4,398.68l.62-4.26,10.28-3.43,3.32,3.53s-5.92,6.64-14.22,4.15Z" style="fill: rgb(104, 225, 253);"/><path class="cls-11_soccer-64" d="M358.4,398.68l.62-4.26,10.28-3.43,3.32,3.53s-5.92,6.64-14.22,4.15Z"/></g></svg>